<svg xmlns="http://www.w3.org/2000/svg" width="32" height="32" viewBox="0 0 32 32" fill="none">
  <g filter="url(#filter0_di_2641_49391)">
    <path fill-rule="evenodd" clip-rule="evenodd" d="M14.2263 3.87808C13.3756 3.82702 12.5689 4.26099 12.1427 4.99904L8.4559 11.3839L17.2456 11.4824C18.0314 11.4912 18.7557 11.9093 19.1562 12.5853L23.6364 20.147L27.3232 13.7622C27.7494 13.0241 27.722 12.1087 27.2524 11.3975L23.2394 5.32045C22.8491 4.72954 22.2035 4.35682 21.4966 4.3144L14.2263 3.87808ZM4.29327 21.0819C3.82365 20.3707 3.79622 19.4553 4.2224 18.7172L7.90924 12.3324L12.3894 19.8941C12.79 20.5701 13.5142 20.9882 14.3 20.997L23.0897 21.0955L19.4029 27.4804C18.9767 28.2184 18.1701 28.6524 17.3193 28.6013L10.0491 28.165C9.34217 28.1226 8.6965 27.7499 8.30629 27.159L4.29327 21.0819Z" fill="url(#paint0_linear_2641_49391)"/>
    <path fill-rule="evenodd" clip-rule="evenodd" d="M14.2263 3.87808C13.3756 3.82702 12.5689 4.26099 12.1427 4.99904L8.4559 11.3839L17.2456 11.4824C18.0314 11.4912 18.7557 11.9093 19.1562 12.5853L23.6364 20.147L27.3232 13.7622C27.7494 13.0241 27.722 12.1087 27.2524 11.3975L23.2394 5.32045C22.8491 4.72954 22.2035 4.35682 21.4966 4.3144L14.2263 3.87808ZM4.29327 21.0819C3.82365 20.3707 3.79622 19.4553 4.2224 18.7172L7.90924 12.3324L12.3894 19.8941C12.79 20.5701 13.5142 20.9882 14.3 20.997L23.0897 21.0955L19.4029 27.4804C18.9767 28.2184 18.1701 28.6524 17.3193 28.6013L10.0491 28.165C9.34217 28.1226 8.6965 27.7499 8.30629 27.159L4.29327 21.0819Z" fill="url(#paint1_linear_2641_49391)"/>
  </g>
  <defs>
    <filter id="filter0_di_2641_49391" x="2.7959" y="3.87402" width="25.9541" height="26.9814" filterUnits="userSpaceOnUse" color-interpolation-filters="sRGB">
      <feFlood flood-opacity="0" result="BackgroundImageFix"/>
      <feColorMatrix in="SourceAlpha" type="matrix" values="0 0 0 0 0 0 0 0 0 0 0 0 0 0 0 0 0 0 127 0" result="hardAlpha"/>
      <feOffset dy="1.125"/>
      <feGaussianBlur stdDeviation="0.5625"/>
      <feComposite in2="hardAlpha" operator="out"/>
      <feColorMatrix type="matrix" values="0 0 0 0 0 0 0 0 0 0 0 0 0 0 0 0 0 0 0.05 0"/>
      <feBlend mode="normal" in2="BackgroundImageFix" result="effect1_dropShadow_2641_49391"/>
      <feBlend mode="normal" in="SourceGraphic" in2="effect1_dropShadow_2641_49391" result="shape"/>
      <feColorMatrix in="SourceAlpha" type="matrix" values="0 0 0 0 0 0 0 0 0 0 0 0 0 0 0 0 0 0 127 0" result="hardAlpha"/>
      <feOffset dy="1.125"/>
      <feGaussianBlur stdDeviation="0.5625"/>
      <feComposite in2="hardAlpha" operator="arithmetic" k2="-1" k3="1"/>
      <feColorMatrix type="matrix" values="0 0 0 0 0 0 0 0 0 0 0 0 0 0 0 0 0 0 0.05 0"/>
      <feBlend mode="normal" in2="shape" result="effect2_innerShadow_2641_49391"/>
    </filter>
    <linearGradient id="paint0_linear_2641_49391" x1="15.7728" y1="3.87402" x2="19.0328" y2="29.4371" gradientUnits="userSpaceOnUse">
      <stop stop-color="white"/>
      <stop offset="1" stop-color="white" stop-opacity="0.8"/>
    </linearGradient>
    <linearGradient id="paint1_linear_2641_49391" x1="15.7728" y1="28.6054" x2="15.7728" y2="3.87402" gradientUnits="userSpaceOnUse">
      <stop stop-color="#2FB9D6"/>
      <stop offset="1" stop-color="#17CA95"/>
    </linearGradient>
  </defs>
</svg>
