<svg xmlns="http://www.w3.org/2000/svg" width="28" height="28" viewBox="0 0 28 28" fill="none">
  <path fill-rule="evenodd" clip-rule="evenodd" d="M22.6686 15.143C22.7153 14.7697 22.7503 14.3963 22.7503 13.9997C22.7503 13.603 22.7153 13.2297 22.6686 12.8563L25.1303 10.9313C25.352 10.7563 25.4103 10.4413 25.2703 10.1847L22.937 6.14801C22.797 5.89134 22.482 5.79801 22.2253 5.89134L19.3203 7.05801C18.7136 6.59134 18.0603 6.20634 17.3486 5.91467L16.9053 2.82301C16.8703 2.54301 16.6253 2.33301 16.3336 2.33301H11.667C11.3753 2.33301 11.1303 2.54301 11.0953 2.82301L10.652 5.91467C9.9403 6.20634 9.28697 6.60301 8.6803 7.05801L5.7753 5.89134C5.50697 5.78634 5.20363 5.89134 5.06363 6.14801L2.7303 10.1847C2.57863 10.4413 2.64863 10.7563 2.8703 10.9313L5.33197 12.8563C5.2853 13.2297 5.2503 13.6147 5.2503 13.9997C5.2503 14.3847 5.2853 14.7697 5.33197 15.143L2.8703 17.068C2.64863 17.243 2.5903 17.558 2.7303 17.8147L5.06363 21.8513C5.20363 22.108 5.51863 22.2013 5.7753 22.108L8.6803 20.9413C9.28697 21.408 9.9403 21.793 10.652 22.0847L11.0953 25.1763C11.1303 25.4563 11.3753 25.6663 11.667 25.6663H16.3336C16.6253 25.6663 16.8703 25.4563 16.9053 25.1763L17.3486 22.0847C18.0603 21.793 18.7136 21.3963 19.3203 20.9413L22.2253 22.108C22.4936 22.213 22.797 22.108 22.937 21.8513L25.2703 17.8147C25.4103 17.558 25.352 17.243 25.1303 17.068L22.6686 15.143ZM14.0003 18.083C11.7486 18.083 9.91697 16.2513 9.91697 13.9997C9.91697 11.748 11.7486 9.91634 14.0003 9.91634C16.252 9.91634 18.0836 11.748 18.0836 13.9997C18.0836 16.2513 16.252 18.083 14.0003 18.083Z" fill="#969696"/>
</svg>