<svg xmlns="http://www.w3.org/2000/svg" width="28" height="28" viewBox="0 0 28 28" fill="none">
  <path fill-rule="evenodd" clip-rule="evenodd" d="M14.7003 21.0704C14.2803 21.3971 13.6853 21.3971 13.2653 21.0704L6.09029 15.4938C5.67029 15.1671 5.08695 15.1671 4.66695 15.4938C4.07195 15.9604 4.07195 16.8588 4.66695 17.3254L12.5536 23.4621C13.3936 24.1154 14.572 24.1154 15.4236 23.4621L23.3103 17.3254C23.9053 16.8588 23.9053 15.9604 23.3103 15.4938L23.2986 15.4821C22.8786 15.1554 22.2953 15.1554 21.8753 15.4821L14.7003 21.0704ZM15.4353 17.5471L23.322 11.4104C23.917 10.9438 23.917 10.0338 23.322 9.5671L15.4353 3.43043C14.5953 2.7771 13.417 2.7771 12.5653 3.43043L4.67862 9.57876C4.08362 10.0454 4.08362 10.9554 4.67862 11.4221L12.5653 17.5588C13.4053 18.2121 14.5953 18.2121 15.4353 17.5471Z" fill="#0BA864"/>
</svg>