<svg xmlns="http://www.w3.org/2000/svg" width="20" height="20" viewBox="0 0 20 20" fill="none">
  <path d="M5.10417 10.1254C5.46528 9.20878 5.89931 8.32684 6.40625 7.47961C6.91319 6.63239 7.48611 5.83378 8.125 5.08378L7.04167 4.85461C6.76389 4.79906 6.49306 4.81295 6.22917 4.89628C5.96528 4.97961 5.73611 5.1185 5.54167 5.31295L2.91667 7.93795C2.70833 8.14628 2.62847 8.39628 2.67708 8.68795C2.72569 8.97961 2.88889 9.181 3.16667 9.29211L5.10417 10.1254ZM17.3542 2.00045C15.8819 1.931 14.4826 2.21572 13.1562 2.85461C11.8299 3.4935 10.6458 4.33378 9.60417 5.37545C8.9375 6.04211 8.35069 6.76434 7.84375 7.54211C7.33681 8.31989 6.89583 9.13934 6.52083 10.0004C6.45139 10.181 6.41667 10.365 6.41667 10.5525C6.41667 10.74 6.48611 10.9032 6.625 11.0421L9.22917 13.6463C9.36806 13.7852 9.53125 13.8546 9.71875 13.8546C9.90625 13.8546 10.0903 13.8199 10.2708 13.7504C11.1319 13.3754 11.9514 12.9345 12.7292 12.4275C13.5069 11.9206 14.2292 11.3338 14.8958 10.6671C15.9375 9.62545 16.7778 8.44142 17.4167 7.11503C18.0556 5.78864 18.3403 4.38934 18.2708 2.91711C18.2708 2.806 18.2431 2.69489 18.1875 2.58378C18.1319 2.47267 18.0625 2.37545 17.9792 2.29211C17.8958 2.20878 17.7986 2.13934 17.6875 2.08378C17.5764 2.02822 17.4653 2.00045 17.3542 2.00045ZM12.0625 8.20878C11.7431 7.88934 11.5833 7.49697 11.5833 7.0317C11.5833 6.56642 11.7431 6.17406 12.0625 5.85461C12.3819 5.53517 12.7743 5.37545 13.2396 5.37545C13.7049 5.37545 14.0972 5.53517 14.4167 5.85461C14.7361 6.17406 14.8958 6.56642 14.8958 7.0317C14.8958 7.49697 14.7361 7.88934 14.4167 8.20878C14.0972 8.52822 13.7049 8.68795 13.2396 8.68795C12.7743 8.68795 12.3819 8.52822 12.0625 8.20878ZM10.1458 15.1671L10.9792 17.1046C11.0903 17.3824 11.2917 17.5491 11.5833 17.6046C11.875 17.6602 12.125 17.5838 12.3333 17.3754L14.9583 14.7504C15.1528 14.556 15.2917 14.3234 15.375 14.0525C15.4583 13.7817 15.4722 13.5074 15.4167 13.2296L15.2083 12.1463C14.4444 12.7852 13.6424 13.3581 12.8021 13.865C11.9618 14.372 11.0764 14.806 10.1458 15.1671ZM3.375 13.3754C3.86111 12.8893 4.45139 12.6428 5.14583 12.6359C5.84028 12.6289 6.43056 12.8685 6.91667 13.3546C7.40278 13.8407 7.64583 14.431 7.64583 15.1254C7.64583 15.8199 7.40278 16.4102 6.91667 16.8963C6.25 17.5629 5.46181 17.9588 4.55208 18.0838C3.64236 18.2088 2.72917 18.3338 1.8125 18.4588C1.9375 17.5421 2.06597 16.6289 2.19792 15.7192C2.32986 14.8095 2.72222 14.0282 3.375 13.3754Z" fill="white"/>
</svg>