<svg xmlns="http://www.w3.org/2000/svg" width="20" height="20" viewBox="0 0 20 20" fill="none">
  <path d="M4.47884 17.8747C4.20106 17.9858 3.94065 17.958 3.69759 17.7913C3.45454 17.6247 3.33301 17.3955 3.33301 17.1038V13.3955C3.33301 13.1177 3.39898 12.8538 3.53092 12.6038C3.66287 12.3538 3.8469 12.1525 4.08301 11.9997L4.99967 11.3955C5.0969 12.5205 5.2462 13.4927 5.44759 14.3122C5.64898 15.1316 5.97884 16.0622 6.43717 17.1038L4.47884 17.8747ZM8.16634 16.6663C7.9719 16.6663 7.80523 16.6038 7.66634 16.4788C7.52745 16.3538 7.42329 16.2011 7.35384 16.0205C6.97884 15.0622 6.70106 14.1768 6.52051 13.3643C6.33995 12.5518 6.24967 11.6177 6.24967 10.5622C6.24967 9.00662 6.52745 7.52398 7.08301 6.11426C7.63856 4.70454 8.39551 3.56217 9.35384 2.68717C9.43717 2.60384 9.53787 2.54481 9.65592 2.51009C9.77398 2.47537 9.88856 2.45801 9.99967 2.45801C10.1108 2.45801 10.2254 2.47537 10.3434 2.51009C10.4615 2.54481 10.5622 2.60384 10.6455 2.68717C11.6038 3.56217 12.3608 4.70454 12.9163 6.11426C13.4719 7.52398 13.7497 9.00662 13.7497 10.5622C13.7497 11.6316 13.6594 12.5691 13.4788 13.3747C13.2983 14.1802 13.0205 15.0622 12.6455 16.0205C12.5761 16.2011 12.4719 16.3538 12.333 16.4788C12.1941 16.6038 12.0275 16.6663 11.833 16.6663H8.16634ZM9.99967 10.833C10.458 10.833 10.8504 10.6698 11.1768 10.3434C11.5031 10.017 11.6663 9.62467 11.6663 9.16634C11.6663 8.70801 11.5031 8.31565 11.1768 7.98926C10.8504 7.66287 10.458 7.49967 9.99967 7.49967C9.54134 7.49967 9.14898 7.66287 8.82259 7.98926C8.4962 8.31565 8.33301 8.70801 8.33301 9.16634C8.33301 9.62467 8.4962 10.017 8.82259 10.3434C9.14898 10.6698 9.54134 10.833 9.99967 10.833ZM15.5205 17.8747L13.5622 17.1038C14.0205 16.0622 14.3504 15.1316 14.5518 14.3122C14.7531 13.4927 14.9025 12.5205 14.9997 11.3955L15.9163 11.9997C16.1525 12.1525 16.3365 12.3538 16.4684 12.6038C16.6004 12.8538 16.6663 13.1177 16.6663 13.3955V17.1038C16.6663 17.3955 16.5448 17.6247 16.3018 17.7913C16.0587 17.958 15.7983 17.9858 15.5205 17.8747Z" fill="#969696"/>
</svg>