<svg xmlns="http://www.w3.org/2000/svg" width="20" height="20" viewBox="0 0 20 20" fill="none">
  <path fill-rule="evenodd" clip-rule="evenodd" d="M3.33301 8.75C2.64134 8.75 2.08301 9.30833 2.08301 10C2.08301 10.6917 2.64134 11.25 3.33301 11.25C4.02467 11.25 4.58301 10.6917 4.58301 10C4.58301 9.30833 4.02467 8.75 3.33301 8.75ZM3.33301 3.75C2.64134 3.75 2.08301 4.30833 2.08301 5C2.08301 5.69167 2.64134 6.25 3.33301 6.25C4.02467 6.25 4.58301 5.69167 4.58301 5C4.58301 4.30833 4.02467 3.75 3.33301 3.75ZM3.33301 13.75C2.64134 13.75 2.08301 14.3167 2.08301 15C2.08301 15.6833 2.64967 16.25 3.33301 16.25C4.01634 16.25 4.58301 15.6833 4.58301 15C4.58301 14.3167 4.02467 13.75 3.33301 13.75ZM6.66634 15.8333H16.6663C17.1247 15.8333 17.4997 15.4583 17.4997 15C17.4997 14.5417 17.1247 14.1667 16.6663 14.1667H6.66634C6.20801 14.1667 5.83301 14.5417 5.83301 15C5.83301 15.4583 6.20801 15.8333 6.66634 15.8333ZM6.66634 10.8333H16.6663C17.1247 10.8333 17.4997 10.4583 17.4997 10C17.4997 9.54167 17.1247 9.16667 16.6663 9.16667H6.66634C6.20801 9.16667 5.83301 9.54167 5.83301 10C5.83301 10.4583 6.20801 10.8333 6.66634 10.8333ZM5.83301 5C5.83301 5.45833 6.20801 5.83333 6.66634 5.83333H16.6663C17.1247 5.83333 17.4997 5.45833 17.4997 5C17.4997 4.54167 17.1247 4.16667 16.6663 4.16667H6.66634C6.20801 4.16667 5.83301 4.54167 5.83301 5Z" fill="#969696"/>
</svg>