<svg xmlns="http://www.w3.org/2000/svg" width="20" height="20" viewBox="0 0 20 20" fill="none">
  <path d="M8.15007 9.29967L6.96674 10.483C6.40007 9.90801 5.85007 9.16634 5.47507 8.03301L7.09174 7.62467C7.35841 8.36634 7.73341 8.87467 8.15007 9.29967ZM8.45841 4.29134L6.12507 1.95801C5.95841 1.79134 5.70007 1.79134 5.53341 1.95801L3.20841 4.29134C2.95007 4.54967 3.13341 4.99967 3.50841 4.99967H5.01674C5.03341 5.67467 5.08341 6.28301 5.17507 6.80801L6.79174 6.39967C6.73341 5.99967 6.69174 5.52467 6.68341 4.99967H8.16674C8.53341 4.99967 8.71674 4.54967 8.45841 4.29134ZM16.7917 4.29134L14.4667 1.96634C14.3001 1.79967 14.0417 1.79967 13.8751 1.96634L11.5501 4.29134C11.2834 4.54967 11.4667 4.99967 11.8417 4.99967H13.3251C13.2417 8.06634 12.2584 8.95801 11.2084 9.89967C10.7917 10.2663 10.3667 10.6663 10.0001 11.1913C9.71674 10.783 9.39174 10.458 9.05841 10.158L7.88341 11.333C8.65841 12.0413 9.16674 12.6163 9.16674 14.1663V17.4997C9.16674 17.958 9.54174 18.333 10.0001 18.333C10.4584 18.333 10.8334 17.958 10.8334 17.4997V14.1663C10.8334 12.483 11.4251 11.9497 12.3251 11.1413C13.4751 10.108 14.8917 8.82467 14.9917 4.99967H16.4917C16.8667 4.99967 17.0501 4.54967 16.7917 4.29134Z" fill="#969696"/>
</svg>