<svg xmlns="http://www.w3.org/2000/svg" width="20" height="20" viewBox="0 0 20 20" fill="none">
  <path fill-rule="evenodd" clip-rule="evenodd" d="M5.33366 7.66699H5.50033C6.14199 7.66699 6.66699 8.19199 6.66699 8.83366V14.667C6.66699 15.3087 6.14199 15.8337 5.50033 15.8337H5.33366C4.69199 15.8337 4.16699 15.3087 4.16699 14.667V8.83366C4.16699 8.19199 4.69199 7.66699 5.33366 7.66699ZM10.0003 4.16699C10.642 4.16699 11.167 4.69199 11.167 5.33366V14.667C11.167 15.3087 10.642 15.8337 10.0003 15.8337C9.35866 15.8337 8.83366 15.3087 8.83366 14.667V5.33366C8.83366 4.69199 9.35866 4.16699 10.0003 4.16699ZM14.667 10.8337C15.3087 10.8337 15.8337 11.3587 15.8337 12.0003V14.667C15.8337 15.3087 15.3087 15.8337 14.667 15.8337C14.0253 15.8337 13.5003 15.3087 13.5003 14.667V12.0003C13.5003 11.3587 14.0253 10.8337 14.667 10.8337Z" fill="#969696"/>
</svg>