<svg xmlns="http://www.w3.org/2000/svg" width="20" height="20" viewBox="0 0 20 20" fill="none">
  <path fill-rule="evenodd" clip-rule="evenodd" d="M17.6255 5.41634C17.6255 7.02467 16.3172 8.33301 14.7089 8.33301C14.3672 8.33301 14.0422 8.26634 13.7339 8.15801L5.13385 16.7497C4.65052 17.2413 3.85885 17.2413 3.36719 16.7497C2.87552 16.2663 2.87552 15.4747 3.36719 14.983L8.65885 9.69134L7.17552 8.20801C6.85052 8.53301 6.32552 8.53301 6.00052 8.20801L5.41719 7.62467V9.74134C5.41719 9.89967 5.35052 10.0497 5.24219 10.158C5.00885 10.3913 4.64219 10.3913 4.40885 10.158L2.29219 8.04134C2.05885 7.80801 2.05885 7.44134 2.29219 7.20801C2.40052 7.09134 2.55052 7.03301 2.70885 7.03301H4.82552L4.23385 6.44134C3.90885 6.11634 3.90885 5.59134 4.23385 5.26634L6.58385 2.90801C7.55885 1.93301 9.14219 1.93301 10.1172 2.90801L8.35052 4.67467L8.94219 5.26634C9.26719 5.59134 9.26719 6.11634 8.94219 6.44134L10.4255 7.92467L11.9672 6.38301C11.8589 6.08301 11.7922 5.75801 11.7922 5.41634C11.7922 3.80801 13.1005 2.49967 14.7089 2.49967C15.1922 2.49967 15.6422 2.63301 16.0422 2.84134L13.7922 5.09134L15.0339 6.33301L17.2839 4.08301C17.4922 4.48301 17.6255 4.93301 17.6255 5.41634ZM13.3756 10.8747L17.4923 14.9913C17.9756 15.4747 17.9756 16.2663 17.4923 16.758C17.009 17.2497 16.2173 17.2497 15.7256 16.758L11.609 12.6413L13.3756 10.8747Z" fill="#969696"/>
</svg>