<svg xmlns="http://www.w3.org/2000/svg" width="20" height="20" viewBox="0 0 20 20" fill="none">
  <path fill-rule="evenodd" clip-rule="evenodd" d="M7.25006 13.2503L4.00006 10.0003L7.25006 6.75026C7.57506 6.42526 7.57506 5.90859 7.25006 5.58359C6.92506 5.25859 6.4084 5.25859 6.0834 5.58359L2.2584 9.40859C1.9334 9.73359 1.9334 10.2586 2.2584 10.5836L6.0834 14.4169C6.4084 14.7419 6.92506 14.7419 7.25006 14.4169C7.57506 14.0919 7.57506 13.5753 7.25006 13.2503ZM12.7501 13.2503L16.0001 10.0003L12.7501 6.75026C12.4251 6.42526 12.4251 5.90859 12.7501 5.58359C13.0751 5.25859 13.5917 5.25859 13.9167 5.58359L17.7417 9.40859C18.0667 9.73359 18.0667 10.2586 17.7417 10.5836L13.9167 14.4169C13.5917 14.7419 13.0751 14.7419 12.7501 14.4169C12.4251 14.0919 12.4251 13.5753 12.7501 13.2503Z" fill="#0BA864"/>
</svg>