<svg xmlns="http://www.w3.org/2000/svg" width="20" height="20" viewBox="0 0 20 20" fill="none">
  <path fill-rule="evenodd" clip-rule="evenodd" d="M3.33366 16.6663H16.667C17.5837 16.6663 18.3337 15.9163 18.3337 14.9997C18.3337 14.083 17.5837 13.333 16.667 13.333H3.33366C2.41699 13.333 1.66699 14.083 1.66699 14.9997C1.66699 15.9163 2.41699 16.6663 3.33366 16.6663ZM3.33366 14.1663H5.00033V15.833H3.33366V14.1663ZM1.66699 4.99967C1.66699 5.91634 2.41699 6.66634 3.33366 6.66634H16.667C17.5837 6.66634 18.3337 5.91634 18.3337 4.99967C18.3337 4.08301 17.5837 3.33301 16.667 3.33301H3.33366C2.41699 3.33301 1.66699 4.08301 1.66699 4.99967ZM5.00033 5.83301H3.33366V4.16634H5.00033V5.83301ZM3.33366 11.6663H16.667C17.5837 11.6663 18.3337 10.9163 18.3337 9.99967C18.3337 9.08301 17.5837 8.33301 16.667 8.33301H3.33366C2.41699 8.33301 1.66699 9.08301 1.66699 9.99967C1.66699 10.9163 2.41699 11.6663 3.33366 11.6663ZM3.33366 9.16634H5.00033V10.833H3.33366V9.16634Z" fill="#969696"/>
</svg>